<?xml version="1.0" standalone="no"?>
<!DOCTYPE svg PUBLIC "-//W3C//DTD SVG 20010904//EN"
 "http://www.w3.org/TR/2001/REC-SVG-20010904/DTD/svg10.dtd">
<svg version="1.0" xmlns="http://www.w3.org/2000/svg"
 width="332.000000pt" height="332.000000pt" viewBox="0 0 332.000000 332.000000"
 preserveAspectRatio="xMidYMid meet">
<metadata>
Created by potrace 1.11, written by Peter Selinger 2001-2013
</metadata>
<g transform="translate(0.000000,332.000000) scale(0.100000,-0.100000)"
fill="#000000" stroke="none">
<path d="M2569 3126 c-2 -2 -20 -6 -39 -9 -377 -54 -947 -412 -1435 -902 -156
-156 -179 -180 -277 -299 -33 -39 -67 -80 -76 -91 -65 -78 -216 -295 -289
-415 -126 -209 -232 -469 -258 -635 -7 -49 -7 -179 0 -220 15 -77 76 -170 135
-206 161 -99 440 -61 780 105 149 74 391 224 494 308 12 9 48 36 80 61 l59 44
41 -21 c33 -17 60 -21 141 -21 88 0 107 3 158 27 l59 28 -22 37 c-43 77 -44
78 -85 59 -44 -21 -134 -31 -155 -17 -12 8 -2 22 55 75 65 60 78 67 183 101
62 21 114 41 117 45 3 4 -2 30 -10 56 -8 27 -15 54 -15 59 0 6 22 33 48 60 26
28 77 84 112 126 89 104 102 119 128 157 13 17 26 32 30 32 4 0 7 -183 6 -407
0 -225 2 -413 4 -419 2 -7 31 -12 77 -13 l73 -1 4 172 c4 186 13 222 70 275
32 30 97 44 134 28 53 -22 59 -48 60 -264 1 -108 2 -199 3 -202 0 -4 35 -7 76
-7 l75 0 0 236 c0 272 -6 295 -82 345 -87 56 -231 32 -308 -53 l-35 -39 2 289
2 289 52 88 c262 444 341 770 237 978 -52 103 -155 157 -309 162 -53 1 -98 1
-100 -1z m204 -215 c82 -50 74 -248 -20 -476 -123 -301 -323 -603 -616 -928
l-71 -79 -41 7 c-105 19 -192 6 -267 -41 -117 -74 -169 -196 -144 -340 l7 -40
-110 -82 c-288 -215 -574 -366 -811 -428 -91 -23 -210 -22 -255 2 -19 10 -35
24 -35 30 0 7 -5 14 -10 16 -28 9 -27 157 1 268 56 221 255 592 441 822 106
132 189 231 232 277 141 151 374 376 461 442 17 13 36 30 44 37 35 34 247 186
351 252 226 144 471 254 615 276 22 3 42 7 44 9 2 3 37 3 77 1 52 -3 83 -10
107 -25z m-887 -1660 c-99 -94 -119 -111 -124 -106 -2 2 1 27 8 54 13 56 60
106 108 117 15 3 32 7 37 8 6 2 17 1 26 -1 11 -3 -5 -24 -55 -72z"/>
</g>
</svg>
